<?xml version="1.0" encoding="utf-8"?>
<!-- Generator: Adobe Illustrator 15.0.0, SVG Export Plug-In  -->
<!DOCTYPE svg PUBLIC "-//W3C//DTD SVG 1.1//EN" "http://www.w3.org/Graphics/SVG/1.1/DTD/svg11.dtd" [
	<!ENTITY ns_flows "http://ns.adobe.com/Flows/1.0/">
]>
<svg version="1.1"
	 xmlns="http://www.w3.org/2000/svg" xmlns:xlink="http://www.w3.org/1999/xlink" xmlns:a="http://ns.adobe.com/AdobeSVGViewerExtensions/3.0/"
	 x="0px" y="0px" width="595px" height="595px" viewBox="-73.3984375 -28.3310547 595 595"
	 enable-background="new -73.3984375 -28.3310547 595 595" xml:space="preserve">
<defs>
</defs>
<rect x="76.1357422" y="230.6616211" fill="none" stroke="#E36723" stroke-width="8.5039396" stroke-miterlimit="10" width="300" height="31.1806641"/>
<rect x="76.1357422" y="290.6611328" fill="none" stroke="#E36723" stroke-width="8.5039396" stroke-miterlimit="10" width="300" height="31.1816406"/>
<rect x="76.1357422" y="404.6611328" fill="none" stroke="#E36723" stroke-width="8.5039396" stroke-miterlimit="10" width="62" height="31.1816406"/>
<rect x="170.1357422" y="356.2519531" fill="none" stroke="#E36723" stroke-width="8.5039396" stroke-miterlimit="10" width="206" height="79.3232422"/>
<path fill="#E36723" d="M142.3876953,124.2148438H71.8837891v39.6845703h70.5039063V124.2148438z M133.8837891,155.3955078
	H80.3876953V132.71875h53.4960938V155.3955078z"/>
<path fill="#E36723" d="M303.7646484,95.8339844l-8.4345703,8.5522461l0.0751953-0.0004883l-48.7929688,48.7929688
	l-20.0712891,0.0263672l48.7265625-48.7265625l0.2314453-0.0009766l8.5214844-8.6435547H0v424.5068359h451.3896484V95.8339844
	H303.7646484z M442.8857422,511.8369141H8.5039063V104.3378906h254.8779297l-57.3974609,57.3984375l44.1552734-0.0585938
	l57.3398438-57.3398438h135.40625V511.8369141z"/>
<path fill="#E36723" d="M36.8505859,483.4902344h377.6884766V178.5878906H36.8505859V483.4902344z M45.3544922,187.0917969
	h360.6806641v287.8945313H45.3544922V187.0917969z"/>
<path fill="#E36723" d="M350.7109375,0c-19.4384766,0-35.2519531,15.8139648-35.2519531,35.2519531
	c0,4.8481445,1.0068359,9.65625,2.9306641,14.078125l-55.2939453,55.2929688l12.2158203-0.0820313l11.0244141-11.1816406
	l0.0566406-0.0058594l42.4169922-42.4179688l-1.5410156-2.7983398c-2.1630859-3.9262695-3.3056641-8.3818359-3.3056641-12.8852539
	c0-14.7490234,11.9990234-26.7480469,26.7480469-26.7480469s26.7480469,11.9990234,26.7480469,26.7480469
	S365.4599609,62,350.7109375,62c-2.8271484,0-5.6220703-0.4448242-8.3076172-1.3222656l-2.4814453-0.8105469l-35.9775391,35.9780273
	l-0.3173828,0.0019531l-8.4433594,8.5610352l12.3076172-0.0825195l34.8320313-34.8330078
	c2.7421875,0.671875,5.5527344,1.0112305,8.3876953,1.0112305c19.4384766,0,35.2519531-15.8139648,35.2519531-35.2519531
	S370.1494141,0,350.7109375,0z"/>
</svg>
