<!DOCTYPE svg PUBLIC "-//W3C//DTD SVG 1.1//EN" "http://www.w3.org/Graphics/SVG/1.1/DTD/svg11.dtd" [
	<!ENTITY ns_flows "http://ns.adobe.com/Flows/1.0/">
]><svg xmlns="http://www.w3.org/2000/svg" width="595" height="595" viewBox="-73.3984375 -28.3310547 595 595" enable-background="new -73.3984375 -28.3310547 595 595"><path stroke="#E36723" stroke-width="8.504" stroke-miterlimit="10" fill="none" d="M76.136 230.662h300v31.18h-300zM76.136 290.66h300v31.183h-300zM76.136 404.66h62v31.183h-62zM170.136 356.252h206v79.323h-206z"/><path fill="#E36723" d="M142.388 124.215H71.884V163.9h70.504v-39.685zm-8.504 31.18H80.388V132.72h53.496v22.676zM303.765 95.834l-8.435 8.552h.075l-48.793 48.793-20.07.025 48.726-48.726.23-.002 8.523-8.644H0V520.34h451.39V95.835H303.765zm139.12 416.003H8.506v-407.5H263.38l-57.398 57.4 44.156-.06 57.34-57.34h135.406v407.5zM36.85 483.49h377.69V178.588H36.85V483.49zm8.504-296.398h360.68v287.894H45.355V187.092zM350.71 0c-19.438 0-35.25 15.814-35.25 35.252 0 4.848 1.006 9.656 2.93 14.078l-55.294 55.293 12.216-.082 11.024-11.18.057-.006 42.417-42.418-1.54-2.8c-2.165-3.925-3.307-8.38-3.307-12.884 0-14.75 12-26.748 26.748-26.748s26.75 12 26.75 26.748S365.46 62 350.71 62c-2.826 0-5.62-.445-8.307-1.322l-2.48-.81-35.98 35.977-.316.002-8.443 8.56 12.307-.08 34.833-34.834c2.742.672 5.553 1.01 8.388 1.01 19.44 0 35.253-15.813 35.253-35.25S370.15 0 350.71 0z"/></svg>