<?xml version="1.0" encoding="utf-8"?>
<!-- Generator: Adobe Illustrator 15.0.0, SVG Export Plug-In  -->
<!DOCTYPE svg PUBLIC "-//W3C//DTD SVG 1.1//EN" "http://www.w3.org/Graphics/SVG/1.1/DTD/svg11.dtd" [
	<!ENTITY ns_flows "http://ns.adobe.com/Flows/1.0/">
]>
<svg version="1.1"
	 xmlns="http://www.w3.org/2000/svg" xmlns:xlink="http://www.w3.org/1999/xlink" xmlns:a="http://ns.adobe.com/AdobeSVGViewerExtensions/3.0/"
	 x="0px" y="0px" width="595px" height="595px" viewBox="-51.3417969 -42.8203125 595 595"
	 enable-background="new -51.3417969 -42.8203125 595 595" xml:space="preserve">
<defs>
</defs>
<path fill="#E36723" d="M484.0927734,50.1118164v443.8803711H8.5039063V50.1118164H484.0927734 M492.5966797,41.6079102H0
	v460.8881836h492.5966797V41.6079102L492.5966797,41.6079102z"/>
<rect x="51.5742188" fill="#E36723" width="8.5039063" height="83.2158203"/>
<rect x="105.5527344" fill="#E36723" width="8.5039063" height="83.2158203"/>
<rect x="159.5292969" fill="#E36723" width="8.5039063" height="83.2158203"/>
<rect x="213.5078125" fill="#E36723" width="8.5039063" height="83.2158203"/>
<rect x="267.4853516" fill="#E36723" width="8.5039063" height="83.2158203"/>
<rect x="321.4628906" fill="#E36723" width="8.5039063" height="83.2158203"/>
<rect x="375.4414063" fill="#E36723" width="8.5039063" height="83.2158203"/>
<rect x="429.4189453" fill="#E36723" width="8.5039063" height="83.2158203"/>
<rect x="55.8261719" y="163.7255859" fill="#E36723" width="24.5615234" height="24.5605469"/>
<rect x="55.8261719" y="237.6821289" fill="#E36723" width="24.5615234" height="24.5600586"/>
<rect x="55.8261719" y="311.6386719" fill="#E36723" width="24.5615234" height="24.5615234"/>
<rect x="55.8261719" y="385.5957031" fill="#E36723" width="24.5615234" height="24.5605469"/>
<rect x="109.8046875" y="171.753418" fill="#E36723" width="323.8671875" height="8.5039063"/>
<rect x="109.8046875" y="245.7109375" fill="#E36723" width="323.8671875" height="8.5039063"/>
<rect x="109.8046875" y="319.6699219" fill="#E36723" width="323.8671875" height="8.5039063"/>
<rect x="109.8046875" y="393.6269531" fill="#E36723" width="323.8671875" height="8.5039063"/>
</svg>
