<!DOCTYPE svg PUBLIC "-//W3C//DTD SVG 1.1//EN" "http://www.w3.org/Graphics/SVG/1.1/DTD/svg11.dtd" [
	<!ENTITY ns_flows "http://ns.adobe.com/Flows/1.0/">
]><svg xmlns="http://www.w3.org/2000/svg" width="595" height="595" viewBox="-36.3740234 -31.1958008 595 595" enable-background="new -36.3740234 -31.1958008 595 595"><path stroke="#E36723" stroke-width="8.504" stroke-miterlimit="10" d="M74.694 236.306l48.502-48.502h-47.572l-.93.93zm0 94.432l142.934-142.934h-47.572l-95.362 95.362zm0 94.432l237.366-237.367h-47.573l-189.793 189.794zm290.442-237.366h-6.217l-276 276h47.57l234.648-234.644zm0 88.216l-187.786 187.783h47.573l140.213-140.213zm0 94.43l-93.354 93.354h47.572l45.782-45.78zm-290.442-298.846h71.467v54.005h-71.466zm142.934 0h159.066v54.005h-159.066zm229.506-62.997v-4.355h-442.882v520.31h361.962v-33.64h-328.324v-453.029h375.61v105.392l33.638-33.48v-101.198zm53.254 194.701h-99.026l49.515-60.024zm-99.025 15.882h99.025v201.09h-99.025zm.001 223.393h99.025v32.757h-99.026zm0 55.057h99.025v35.334h-99.026z" fill="none"/></svg>