<!DOCTYPE svg PUBLIC "-//W3C//DTD SVG 1.1//EN" "http://www.w3.org/Graphics/SVG/1.1/DTD/svg11.dtd" [
	<!ENTITY ns_flows "http://ns.adobe.com/Flows/1.0/">
]><svg xmlns="http://www.w3.org/2000/svg" width="595" height="595" viewBox="-52.1582031 -54.7480469 595 595" enable-background="new -52.1582031 -54.7480469 595 595"><path stroke="#E36723" stroke-width="8.504" stroke-miterlimit="10" d="M310.52 351.063l-52.442 52.48 98.833 98.844 167.06-167.015-38.176-38.845-127.803 106.13zm-19.893-20.037l20.894-20.91 20.017 21.753 29.23 31.768 1.274-1.058v-82.745h-80.976v60.76zm-42.463 102.451h-214.07v-354.685h359.744v257.45l29.842-24.78v-307.212h-419.428v462.416h277.1l-33.188-33.19zm-185.704-403.662h50.206v28.085h-50.206v-28.084zm175.807 353.691l14.97-14.982v-88.69h-80.977v119.623h50.068zm-174.81-103.671h80.976v119.622h-80.976zm40.488-162.837h217.607v45.333h-217.607zm-40.488 92.409h149.29v26.154h-149.289zm222.981 3.053h70.23v26.152h-70.23z" fill="none"/></svg>