<?xml version="1.0" encoding="utf-8"?>
<!-- Generator: Adobe Illustrator 15.0.0, SVG Export Plug-In  -->
<!DOCTYPE svg PUBLIC "-//W3C//DTD SVG 1.1//EN" "http://www.w3.org/Graphics/SVG/1.1/DTD/svg11.dtd" [
	<!ENTITY ns_flows "http://ns.adobe.com/Flows/1.0/">
]>
<svg version="1.1"
	 xmlns="http://www.w3.org/2000/svg" xmlns:xlink="http://www.w3.org/1999/xlink" xmlns:a="http://ns.adobe.com/AdobeSVGViewerExtensions/3.0/"
	 x="0px" y="0px" width="595px" height="595px" viewBox="-34.5961914 -39.5234375 595 595"
	 enable-background="new -34.5961914 -39.5234375 595 595" xml:space="preserve">
<defs>
</defs>
<g>
	<path fill="#E36723" d="M137.0922852,173.6972656v261.5820313H81.3017578V173.6972656H137.0922852 M145.5961914,165.1933594
		H72.7978516v278.5898438h72.7983398V165.1933594L145.5961914,165.1933594z"/>
</g>
<g>
	<path fill="#E36723" d="M27.8950195,8.5039063v471.3291016v8.5039063h8.5039063h476.578125v19.3925781H36.3989258H8.5039063
		v-27.8964844V8.5039063H27.8950195 M36.3989258,0H0v479.8330078v36.4003906h36.3989258H521.480957v-36.4003906H36.3989258V0
		L36.3989258,0z"/>
</g>
<g>
	<path fill="#E36723" d="M371.7602539,100.4013672c33.0117188,0,64.0478516,12.8554688,87.3916016,36.1987305
		c23.3427734,23.3432617,36.1982422,54.3793945,36.1982422,87.3911133c0,33.0126953-12.8554688,64.0488281-36.1982422,87.3925781
		c-23.34375,23.3427734-54.3798828,36.1982422-87.3916016,36.1982422c-33.0126953,0-64.0488281-12.8554688-87.3916016-36.1982422
		c-23.3432617-23.3427734-36.1987305-54.3798828-36.1987305-87.3925781c0-33.0117188,12.8554688-64.0478516,36.1987305-87.3911133
		C307.7114258,113.2568359,338.7475586,100.4013672,371.7602539,100.4013672 M371.7602539,317.8486328
		c51.7529297,0,93.8574219-42.1044922,93.8574219-93.8574219s-42.1044922-93.8574219-93.8574219-93.8574219
		s-93.8574219,42.1044922-93.8574219,93.8574219S320.0073242,317.8486328,371.7602539,317.8486328 M371.7602539,91.8974609
		c-72.9541016,0-132.0942383,59.1411133-132.0942383,132.09375c0,72.9550781,59.1401367,132.0947266,132.0942383,132.0947266
		c72.953125,0,132.09375-59.1396484,132.09375-132.0947266C503.8540039,151.0385742,444.7133789,91.8974609,371.7602539,91.8974609
		L371.7602539,91.8974609z M371.7602539,309.3447266c-47.1396484,0-85.3535156-38.2128906-85.3535156-85.3535156
		c0-47.1381836,38.2138672-85.3535156,85.3535156-85.3535156s85.3535156,38.215332,85.3535156,85.3535156
		C457.1137695,271.1318359,418.8999023,309.3447266,371.7602539,309.3447266L371.7602539,309.3447266z"/>
</g>
<g>
	<path fill="#E36723" d="M349.8842773,162.2456055v123.4907227c-25.8007813-9.109375-43.6347656-33.637207-43.6347656-61.7451172
		S324.0834961,171.355957,349.8842773,162.2456055 M358.3881836,151.2094727
		c-34.4472656,6.3149414-60.6425781,36.5366211-60.6425781,72.7817383c0,36.2441406,26.1953125,66.4667969,60.6425781,72.78125
		V151.2094727L358.3881836,151.2094727z"/>
</g>
<g>
	<path fill="#E36723" d="M349.8842773,8.5039063v65.1157227c-19.7695313,2.8432617-38.7138672,9.5561523-55.7900391,19.734375
		V8.5039063H349.8842773 M358.3881836,0H285.590332v109.3056641c21.1894531-15.9902344,46.2285156-25.6870117,72.7978516-28.1274414
		V0L358.3881836,0z"/>
</g>
<g>
	<path fill="#E36723" d="M294.0942383,354.6289063c17.0761719,10.1787109,36.0205078,16.8916016,55.7900391,19.7353516v60.9150391
		h-55.7900391V354.6289063 M285.590332,338.6777344v105.1054688h72.7978516v-76.9775391
		C331.8188477,364.3652344,306.7797852,354.6679688,285.590332,338.6777344L285.590332,338.6777344z"/>
</g>
<g>
	<path fill="#E36723" d="M242.0883789,123.2993164v21.4101563c-14.5732422,23.7480469-22.2646484,51.1044922-22.2646484,79.2817383
		c0,28.1777344,7.6914063,55.5351563,22.2646484,79.2832031v132.0048828h-55.7905273V123.2993164H242.0883789
		 M250.5922852,114.7954102h-72.7983398v328.987793h72.7983398V300.8349609
		c-14.4970703-22.7607422-22.2646484-49.2050781-22.2646484-76.84375s7.7675781-54.0820313,22.2646484-76.8427734V114.7954102
		L250.5922852,114.7954102z"/>
</g>
<path fill="#E36723" d="M515.003418,390.1318359l-45.6328125-79.0273438
	c-0.8564453-1.4833984-1.8671875-2.8359375-2.9970703-4.0722656c-1.4941406,2.3955078-3.3173828,4.6171875-5.5039063,6.6542969
	c0.4130859,0.5322266,0.7988281,1.0849609,1.1367188,1.6708984l45.6328125,79.0273438
	c2.6982422,4.671875,2.7246094,10.6953125,0.0742188,16.9609375c-2.9980469,7.0869141-8.9033203,13.4462891-16.6269531,17.90625
	c-6.3408203,3.6601563-13.453125,5.6767578-20.0283203,5.6767578c-8.5019531,0-15.2236328-3.1962891-18.4414063-8.7714844
	l-45.4091797-78.6357422c-2.9335938,0.8886719-5.8554688,1.2529297-8.8701172,1.2744141
	c0.3720703,0.8808594,0.7939453,1.7451172,1.2792969,2.5859375l45.6357422,79.0283203
	c4.9296875,8.5390625,14.6884766,13.0224609,25.8056641,13.0224609c7.8242188,0,16.3242188-2.2226563,24.2802734-6.8164063
	C514.6010742,425.4931641,523.4057617,404.6806641,515.003418,390.1318359z"/>
</svg>
