<!DOCTYPE svg PUBLIC "-//W3C//DTD SVG 1.1//EN" "http://www.w3.org/Graphics/SVG/1.1/DTD/svg11.dtd" [
	<!ENTITY ns_flows "http://ns.adobe.com/Flows/1.0/">
]><svg xmlns="http://www.w3.org/2000/svg" width="595" height="595" viewBox="-40.5126953 -29.9428711 595 595" enable-background="new -40.5126953 -29.9428711 595 595"><path fill="#E36723" d="M55.252 458.808H8.504V8.504H332v22.553h8.504V0H0v467.312h55.252zM55.252 50.094H8.504V8.504H332v22.553h8.504V0H0v58.598h55.252zM55.252 332.125H34.504V163.27h20.748v-8.502H26v185.86h29.252zM55.252 433.47H34.504V374.4h20.748v-8.505H26v76.08h29.252zM107.252 485.52H60.504V35.214H384v20.842h8.504V26.71H52v467.313h55.252zM107.252 76.805H60.504v-41.59H384v20.842h8.504V26.71H52v58.6h55.252zM107.252 358.835H86.504V189.982h20.748v-8.503H78v185.86h29.252zM107.252 460.182H86.504V401.11h20.748v-8.504H78v76.08h29.252zM435.514 409.682c-.256.07-.51.128-.766.19V512.23H111.252V61.926h323.496v262.597c.647-.61 1.29-1.21 1.928-1.79 2.008-1.828 4.23-3.31 6.576-4.44V53.423H102.748v467.31h340.504V405.9c-2.317 1.7-4.927 3.01-7.738 3.782zM443.252 112.02H102.748V53.422h340.504v58.598zm-332-8.504h323.496v-41.59H111.252v41.59zM371.252 166.02H198.748v-36.504h172.504v36.504zm-164-8.504h155.496V138.02H207.252v19.496zM195.252 394.05h-66.504V208.19h66.504v185.86zm-58-8.504h49.496V216.693h-49.496v168.853zM195.252 495.397h-66.504v-76.08h66.504v76.08zm-58-8.504h49.496V427.82h-49.496v59.073zM295.16 390.538c-1.014-1.506-1.9-3.193-2.64-4.992h-45.268V216.693h155.496V349.88c2.583-2.443 5.427-4.682 8.504-6.716V208.19H238.748v185.86h59.12c-.946-1.097-1.856-2.252-2.707-3.512zM373.17 478.237L269.143 374.2l58.144-58.19 47.345 51.458L501.276 262.3l43.556 44.32L373.17 478.237zm-92.003-104.04l92.004 92.014 159.687-159.643-32.165-32.728-126.844 105.333-46.814-50.878-45.867 45.902z"/></svg>