<!DOCTYPE svg PUBLIC "-//W3C//DTD SVG 1.1//EN" "http://www.w3.org/Graphics/SVG/1.1/DTD/svg11.dtd" [
	<!ENTITY ns_flows "http://ns.adobe.com/Flows/1.0/">
]><svg xmlns="http://www.w3.org/2000/svg" width="595" height="595" viewBox="-31.3710938 -35.4477539 595 595" enable-background="new -31.3710938 -35.4477539 595 595"><path fill="#E36723" d="M50.487 370.355l80.1 80.1-88.603 8.5 8.503-88.6m-6.74-18.768l-11.213 116.82 116.82-11.21-105.608-105.61zM275.143 132.215l93.584 93.582-202.434 202.436L72.71 334.65l202.433-202.435m0-12.026L60.683 334.65l105.61 105.61 214.46-214.463-105.61-105.608zM395.33 12.026l93.584 93.583-25.656 25.656-93.583-93.583 25.656-25.657m0-12.026L357.65 37.683l105.61 105.61 37.682-37.684L395.33 0zM333.863 73.495l93.583 93.583-22.908 22.908-93.583-93.583 22.908-22.908m0-12.027L298.93 96.403l105.608 105.61 34.935-34.935-105.61-105.61zM530.378 495.174l.002 16.63H8.504v-16.63h521.874m8.503-8.504H0v33.64h538.885l-.004-33.64z"/></svg>