<!DOCTYPE svg PUBLIC "-//W3C//DTD SVG 1.1//EN" "http://www.w3.org/Graphics/SVG/1.1/DTD/svg11.dtd" [
	<!ENTITY ns_flows "http://ns.adobe.com/Flows/1.0/">
]><svg xmlns="http://www.w3.org/2000/svg" width="595" height="595" viewBox="-31.3710938 -35.4477539 595 595" enable-background="new -31.3710938 -35.4477539 595 595"><path fill="#E36723" d="M50.487 370.355l80.1 80.1-88.603 8.5 8.503-88.6m-6.74-18.768l-11.213 116.82 116.82-11.21-105.608-105.61zm231.396-219.372l93.584 93.582-202.434 202.436-93.583-93.583 202.433-202.435m0-12.026l-214.46 214.461 105.61 105.61 214.46-214.463-105.61-105.608zm120.187-108.163l93.584 93.583-25.656 25.656-93.583-93.583 25.656-25.657m0-12.026l-37.681 37.684 105.61 105.61 37.682-37.684-105.612-105.609zm-61.468 73.496l93.583 93.583-22.908 22.908-93.583-93.583 22.908-22.908m0-12.027l-34.933 34.935 105.608 105.61 34.935-34.935-105.61-105.61zm196.515 433.706l.002 16.63h-521.876v-16.63h521.874m8.503-8.504h-538.881v33.64h538.885l-.004-33.64z"/></svg>