<!DOCTYPE svg PUBLIC "-//W3C//DTD SVG 1.1//EN" "http://www.w3.org/Graphics/SVG/1.1/DTD/svg11.dtd" [
	<!ENTITY ns_flows "http://ns.adobe.com/Flows/1.0/">
]><svg xmlns="http://www.w3.org/2000/svg" width="595" height="595" viewBox="-51.3417969 -42.8203125 595 595" enable-background="new -51.3417969 -42.8203125 595 595"><path fill="#E36723" d="M484.093 50.112v443.88h-475.59v-443.88h475.59m8.504-8.504h-492.597v460.888h492.597v-460.888zm-441.023-41.608h8.504v83.216h-8.504zm53.979 0h8.504v83.216h-8.504zm53.977 0h8.503v83.216h-8.504zm53.978 0h8.504v83.216h-8.504zm53.977 0h8.504v83.216h-8.505zm53.978 0h8.504v83.216h-8.504zm53.977 0h8.505v83.216h-8.504zm53.98 0h8.503v83.216h-8.504zm-373.594 163.726h24.562v24.56h-24.562zm0 73.956h24.562v24.56h-24.562zm0 73.958h24.562v24.56h-24.562zm0 73.956h24.562v24.56h-24.562zm53.979-213.843h323.867v8.504h-323.867zm0 73.957h323.867v8.505h-323.867zm0 73.96h323.867v8.504h-323.867zm0 73.957h323.867v8.504h-323.867z"/></svg>