<!DOCTYPE svg PUBLIC "-//W3C//DTD SVG 1.1//EN" "http://www.w3.org/Graphics/SVG/1.1/DTD/svg11.dtd" [
	<!ENTITY ns_flows "http://ns.adobe.com/Flows/1.0/">
]><svg xmlns="http://www.w3.org/2000/svg" width="595" height="595" viewBox="-56.390625 -71.425293 595 595" enable-background="new -56.390625 -71.425293 595 595"><path fill="#E36723" d="M36.61 33.513c-20.908 22.297-33.556 53.1-36.61 89.132v28.35c3.52 42.36 23.052 87.293 58.06 133.562 40.144 53.053 101.73 109.483 183.187 167.873 81.457-58.392 143.045-114.823 183.188-167.873 35.014-46.272 54.546-91.202 58.066-133.56v-28.35c-3.06-36.032-15.713-66.837-36.62-89.133-17.292-18.44-39.798-30.244-61.75-32.39-7.651-.744-14.951-1.124-21.703-1.124-48.07 0-70.897 17.534-103.876 56.837l-17.306 20.623-17.306-20.624c-32.98-39.302-55.804-56.836-103.882-56.836-6.75 0-14.053.38-21.702 1.125-21.954 2.145-44.458 13.95-61.746 32.388zm62.955-19.913c7.25-.706 14.143-1.065 20.49-1.065 43.35 0 63.298 15.437 94.284 52.363l26.912 32.063 26.9-32.064c30.98-36.925 50.924-52.36 94.276-52.36 6.35 0 13.243.358 20.482 1.065 19.28 1.884 39.194 12.65 54.632 29.535 18.162 19.867 29.34 47.172 32.324 78.958l.1 1.053v27.356l-.098 1.04c-3.905 42.17-24.703 87.243-61.82 133.96-35.547 44.748-87.133 92.38-153.325 141.583l-13.477 10.017-13.475-10.017c-66.187-49.2-117.77-96.834-153.32-141.577-37.113-46.72-57.913-91.793-61.818-133.968l-.097-1.04v-27.357l.1-1.05c2.973-31.789 14.145-59.095 32.307-78.961 15.435-16.886 35.343-27.65 54.624-29.534z"/></svg>