<!DOCTYPE svg PUBLIC "-//W3C//DTD SVG 1.1//EN" "http://www.w3.org/Graphics/SVG/1.1/DTD/svg11.dtd" [
	<!ENTITY ns_flows "http://ns.adobe.com/Flows/1.0/">
]><svg xmlns="http://www.w3.org/2000/svg" width="595" height="595" viewBox="-52.1582031 -54.7480469 595 595" enable-background="new -52.1582031 -54.7480469 595 595"><path stroke="#E36723" stroke-width="8.504" stroke-miterlimit="10" fill="none" d="M310.52 351.063l-52.442 52.48 98.833 98.844 167.06-167.015-38.176-38.845-127.803 106.13zM290.627 331.026l20.894-20.91 20.017 21.753 29.23 31.768 1.274-1.058v-82.745h-80.976v60.76zM248.164 433.477H34.094V78.792h359.744v257.45l29.842-24.78V4.25H4.252v462.416h277.1l-33.188-33.19zM62.46 29.815h50.206V57.9H62.46V29.816zM238.267 383.506l14.97-14.982v-88.69H172.26v119.623h50.068zM63.457 279.835h80.976v119.622H63.457zM103.945 116.998h217.607v45.333H103.945zM63.457 209.407h149.29v26.154H63.458zM286.438 212.46h70.23v26.152h-70.23z"/></svg>