<!DOCTYPE svg PUBLIC "-//W3C//DTD SVG 1.1//EN" "http://www.w3.org/Graphics/SVG/1.1/DTD/svg11.dtd" [
	<!ENTITY ns_flows "http://ns.adobe.com/Flows/1.0/">
]><svg xmlns="http://www.w3.org/2000/svg" width="595" height="595" viewBox="-51.3417969 -42.8203125 595 595" enable-background="new -51.3417969 -42.8203125 595 595"><path fill="#E36723" d="M484.093 50.112v443.88H8.503V50.112h475.59m8.504-8.504H0v460.888h492.597V41.608zM51.574 0h8.504v83.216h-8.504zM105.553 0h8.504v83.216h-8.504zM159.53 0h8.503v83.216h-8.504zM213.508 0h8.504v83.216h-8.504zM267.485 0h8.504v83.216h-8.505zM321.463 0h8.504v83.216h-8.504zM375.44 0h8.505v83.216h-8.504zM429.42 0h8.503v83.216h-8.504zM55.826 163.726h24.562v24.56H55.826zM55.826 237.682h24.562v24.56H55.826zM55.826 311.64h24.562v24.56H55.826zM55.826 385.596h24.562v24.56H55.826zM109.805 171.753h323.867v8.504H109.805zM109.805 245.71h323.867v8.505H109.805zM109.805 319.67h323.867v8.504H109.805zM109.805 393.627h323.867v8.504H109.805z"/></svg>