<!DOCTYPE svg PUBLIC "-//W3C//DTD SVG 1.1//EN" "http://www.w3.org/Graphics/SVG/1.1/DTD/svg11.dtd" [
	<!ENTITY ns_flows "http://ns.adobe.com/Flows/1.0/">
]><svg xmlns="http://www.w3.org/2000/svg" width="595" height="595" viewBox="-49.2578125 -52.7480469 595 595" enable-background="new -49.2578125 -52.7480469 595 595"><path stroke="#000" stroke-width="8.504" stroke-miterlimit="10" d="M4.252 4.252h498v108h-498z" fill="none"/><path fill="#E36723" d="M332.706 329.89c0-39.154 35.92-67.89 84.413-67.89 48.85 0 84.412 28.736 84.412 67.89 0 25.504-12.93 44.182-36.64 52.085 29.456 7.184 47.057 30.173 47.057 61.424 0 45.977-37.718 76.51-94.83 76.51-57.115 0-94.474-30.533-94.474-76.51 0-31.253 17.602-54.24 47.057-61.426-23.708-7.903-36.998-26.58-36.998-52.084zm40.95 110.276c0 24.427 17.6 40.95 43.463 40.95 26.22 0 43.82-16.165 43.82-40.59 0-24.067-17.96-40.23-44.9-40.23-24.784 0-42.386 16.522-42.386 39.87zm5.746-107.043c0 20.475 15.087 33.766 38.077 33.766 23.346 0 38.074-13.293 38.074-33.768s-14.728-32.687-38.436-32.687c-22.63 0-37.718 12.93-37.718 32.687zm-94.875 129.59h-76.513v-42.17h77.213c.585-2.882 1.284-5.72 2.092-8.503h-79.307v-42.17h91.25v15.87c1.374-2.122 2.82-4.198 4.36-6.21.464-.603.934-1.202 1.41-1.794-2.9-5.16-5.288-10.64-7.153-16.37h-89.866v-42.17h85.564c.3-2.874.715-5.71 1.25-8.503h-86.814v-42.17h91.25v26.29c2.265-6.083 5.12-11.892 8.504-17.387v-8.902h6.162c2.282-2.95 4.734-5.787 7.34-8.503h-13.5v-42.17h91.25v5.51c2.8-.325 5.635-.582 8.504-.755v-4.753H498v29.042c1.545 1.12 3.06 2.273 4.538 3.463 1.628 1.312 3.206 2.662 4.74 4.044V108h-.774V0H0v471.22h286.263c-.685-2.794-1.263-5.63-1.737-8.504zm14.737-202.692h-91.25v-42.17h91.25v42.17zm0-50.672h-91.25v-42.17h91.25v42.17zm0-50.674h-91.25v-42.17h91.25v42.17zm99.755 50.674h-91.253v-42.17h91.25v42.17zm0-50.674h-91.253v-42.17h91.25v42.17zM498 209.347h-90.478v-42.17H498v42.17zm0-50.674h-90.478v-42.17H498v42.17zM99.755 462.713H8.505v-42.17h91.25v42.17zm0-50.673H8.505v-42.17h91.25v42.17zm0-50.673H8.505v-42.17h91.25v42.17zm0-50.674H8.505v-42.17h91.25v42.17zm0-50.672H8.505v-42.17h91.25v42.17zm0-50.672H8.505v-42.17h91.25v42.17zm0-50.674H8.505v-42.17h91.25v42.17zm99.755 304.04h-91.25v-42.17h91.25v42.17zm0-50.673h-91.25v-42.17h91.25v42.17zm0-50.672h-91.25v-42.17h91.25v42.17zm0-50.674h-91.25v-42.17h91.25v42.17zm0-50.672h-91.25v-42.17h91.25v42.17zm0-50.673h-91.25v-42.17h91.25v42.17zm0-50.675h-91.25v-42.17h91.25v42.17zm0-50.673H8.505V8.504H498V108H199.51z"/><path stroke="#E36723" stroke-width="8.504" stroke-miterlimit="10" d="M29.252 30.205h67.755v56.01H29.252z" fill="none"/></svg>