<!DOCTYPE svg PUBLIC "-//W3C//DTD SVG 1.1//EN" "http://www.w3.org/Graphics/SVG/1.1/DTD/svg11.dtd" [
	<!ENTITY ns_flows "http://ns.adobe.com/Flows/1.0/">
]><svg xmlns="http://www.w3.org/2000/svg" width="595" height="595" viewBox="-36.3740234 -31.1958008 595 595" enable-background="new -36.3740234 -31.1958008 595 595"><path stroke="#E36723" stroke-width="8.504" stroke-miterlimit="10" fill="none" d="M74.694 236.306l48.502-48.502H75.624l-.93.93zM74.694 330.738l142.934-142.934h-47.572l-95.362 95.362zM74.694 425.17L312.06 187.803h-47.573L74.694 377.597zM365.136 187.804h-6.217l-276 276h47.57L365.137 229.16zM365.136 276.02L177.35 463.803h47.573L365.136 323.59zM365.136 370.45l-93.354 93.354h47.572l45.782-45.78zM74.694 71.604h71.467v54.005H74.695zM217.628 71.604h159.066v54.005H217.628zM447.134 8.607V4.252H4.252v520.31h361.962v-33.64H37.89V37.893H413.5v105.392l33.638-33.48V8.607zM500.388 203.308h-99.026l49.515-60.024zM401.363 219.19h99.025v201.09h-99.025zM401.364 442.583h99.025v32.757h-99.026zM401.364 497.64h99.025v35.334h-99.026z"/></svg>