<!DOCTYPE svg PUBLIC "-//W3C//DTD SVG 1.1//EN" "http://www.w3.org/Graphics/SVG/1.1/DTD/svg11.dtd" [
	<!ENTITY ns_flows "http://ns.adobe.com/Flows/1.0/">
]><svg xmlns="http://www.w3.org/2000/svg" width="595" height="595" viewBox="-73.3984375 -28.3310547 595 595" enable-background="new -73.3984375 -28.3310547 595 595"><path stroke="#E36723" stroke-width="8.504" stroke-miterlimit="10" d="M76.136 230.662h300v31.18h-300zm0 59.998h300v31.183h-300zm0 114h62v31.183h-62zm94-48.408h206v79.323h-206z" fill="none"/><path fill="#E36723" d="M142.388 124.215h-70.504v39.685h70.504v-39.685zm-8.504 31.18h-53.496v-22.675h53.496v22.676zm169.881-59.561l-8.435 8.552h.075l-48.793 48.793-20.07.025 48.726-48.726.23-.002 8.523-8.644h-284.021v424.508h451.39v-424.505h-147.625zm139.12 416.003h-434.379v-407.5h254.874l-57.398 57.4 44.156-.06 57.34-57.34h135.406v407.5zm-406.035-28.347h377.69v-304.902h-377.69v304.902zm8.504-296.398h360.68v287.894h-360.679v-287.894zm305.356-187.092c-19.438 0-35.25 15.814-35.25 35.252 0 4.848 1.006 9.656 2.93 14.078l-55.294 55.293 12.216-.082 11.024-11.18.057-.006 42.417-42.418-1.54-2.8c-2.165-3.925-3.307-8.38-3.307-12.884 0-14.75 12-26.748 26.748-26.748s26.75 12 26.75 26.748-12.001 26.747-26.751 26.747c-2.826 0-5.62-.445-8.307-1.322l-2.48-.81-35.98 35.977-.316.002-8.443 8.56 12.307-.08 34.833-34.834c2.742.672 5.553 1.01 8.388 1.01 19.44 0 35.253-15.813 35.253-35.25s-15.815-35.253-35.255-35.253z"/></svg>