<!DOCTYPE svg PUBLIC "-//W3C//DTD SVG 1.1//EN" "http://www.w3.org/Graphics/SVG/1.1/DTD/svg11.dtd" [
	<!ENTITY ns_flows "http://ns.adobe.com/Flows/1.0/">
]><svg xmlns="http://www.w3.org/2000/svg" width="595" height="595" viewBox="-34.5961914 -39.5234375 595 595" enable-background="new -34.5961914 -39.5234375 595 595"><path fill="#E36723" d="M137.092 173.697v261.583h-55.79v-261.584h55.79m8.504-8.504h-72.798v278.59h72.798v-278.59zm-117.701-156.688v479.833h485.081v19.392h-504.473v-499.227h19.39m8.507-8.502h-36.4v516.233h521.48v-36.4h-485.08v-479.833zm335.36 100.4c33.012 0 64.048 12.857 87.392 36.2 23.343 23.343 36.198 54.38 36.198 87.39 0 33.014-12.855 64.05-36.198 87.394-23.344 23.343-54.38 36.198-87.392 36.198-33.012 0-64.05-12.855-87.39-36.198-23.345-23.343-36.2-54.38-36.2-87.393 0-33.01 12.855-64.047 36.2-87.39 23.34-23.343 54.378-36.2 87.39-36.2m0 217.45c51.753 0 93.858-42.106 93.858-93.86s-42.105-93.856-93.858-93.856-93.857 42.104-93.857 93.857 42.104 93.86 93.857 93.86m0-225.953c-72.954 0-132.094 59.142-132.094 132.094 0 72.956 59.14 132.096 132.094 132.096 72.953 0 132.094-59.14 132.094-132.095 0-72.95-59.14-132.093-132.094-132.093zm0 217.448c-47.14 0-85.353-38.213-85.353-85.354 0-47.137 38.214-85.352 85.353-85.352s85.354 38.215 85.354 85.353c0 47.142-38.214 85.355-85.354 85.355zm-21.876-147.101v123.49c-25.8-9.11-43.634-33.637-43.634-61.745s17.833-52.634 43.634-61.744m8.504-11.037c-34.447 6.314-60.642 36.536-60.642 72.78 0 36.245 26.195 66.468 60.642 72.782v-145.562zm-8.504-142.706v65.116c-19.77 2.843-38.714 9.556-55.79 19.734v-84.85h55.79m8.504-8.504h-72.798v109.306c21.19-15.99 46.23-25.687 72.798-28.128v-81.178zm-64.294 354.63c17.076 10.178 36.02 16.89 55.79 19.734v60.915h-55.79v-80.65m-8.504-15.952v105.105h72.798v-76.977c-26.57-2.44-51.608-12.138-72.798-28.128zm-43.502-215.377v21.41c-14.573 23.748-22.264 51.104-22.264 79.28 0 28.18 7.69 55.536 22.264 79.284v132.006h-55.79v-311.98h55.79m8.504-8.505h-72.798v328.988h72.798v-142.948c-14.497-22.76-22.264-49.205-22.264-76.844s7.767-54.08 22.264-76.842v-32.353zm264.411 275.337l-45.632-79.028c-.856-1.483-1.867-2.835-2.996-4.072-1.495 2.396-3.318 4.617-5.504 6.655.413.532.798 1.084 1.136 1.67l45.633 79.028c2.697 4.672 2.724 10.695.073 16.96-2.998 7.088-8.903 13.447-16.627 17.907-6.34 3.66-13.453 5.677-20.028 5.677-8.502 0-15.224-3.198-18.44-8.773l-45.41-78.636c-2.934.89-5.856 1.254-8.87 1.276.37.88.793 1.745 1.28 2.586l45.634 79.028c4.93 8.54 14.69 13.023 25.806 13.023 7.824 0 16.324-2.223 24.28-6.817 19.263-11.123 28.068-31.935 19.665-46.484z"/></svg>