<?xml version="1.0" encoding="utf-8"?>
<!-- Generator: Adobe Illustrator 15.0.0, SVG Export Plug-In  -->
<!DOCTYPE svg PUBLIC "-//W3C//DTD SVG 1.1//EN" "http://www.w3.org/Graphics/SVG/1.1/DTD/svg11.dtd" [
	<!ENTITY ns_flows "http://ns.adobe.com/Flows/1.0/">
]>
<svg version="1.1"
	 xmlns="http://www.w3.org/2000/svg" xmlns:xlink="http://www.w3.org/1999/xlink" xmlns:a="http://ns.adobe.com/AdobeSVGViewerExtensions/3.0/"
	 x="0px" y="0px" width="595px" height="595px" viewBox="-56.390625 -71.425293 595 595"
	 enable-background="new -56.390625 -71.425293 595 595" xml:space="preserve">
<defs>
</defs>
<path fill="#E36723" d="M36.609375,33.5126953C15.703125,55.8085938,3.0546875,86.6137695,0,122.6445313v28.3496094
	c3.5205078,42.3618164,23.0517578,87.293457,58.0605469,133.5629883
	c40.1425781,53.0517578,101.7285156,109.4824219,183.1855469,167.8730469
	c81.4570313-58.3925781,143.0449219-114.8232422,183.1875-167.8730469
	C459.4482422,238.284668,478.9804688,193.3549805,482.5,150.9960938v-28.3486328
	c-3.0605469-36.0327148-15.7128906-66.8374023-36.6210938-89.1337891
	c-17.2910156-18.4389648-39.796875-30.2441406-61.7490234-32.3881836C376.4814453,0.3789063,369.1796875,0,362.4277344,0
	C314.3574219,0,291.53125,17.5336914,258.5517578,56.8374023l-17.3056641,20.6220703l-17.3046875-20.6220703
	C190.9609375,17.5336914,168.1347656,0,120.0566406,0c-6.7509766,0-14.0527344,0.3789063-21.7011719,1.1254883
	C76.4023438,3.2695313,53.8984375,15.0737305,36.609375,33.5126953z M99.5664063,13.6010742
	c7.2490234-0.7070313,14.1425781-1.0664063,20.4902344-1.0664063c43.3486328,0,63.296875,15.4370117,94.2832031,52.3632813
	l26.9121094,32.0629883l26.9003906-32.0654297c30.9785156-36.9243164,50.9238281-52.3608398,94.2753906-52.3608398
	c6.3515625,0,13.2431641,0.359375,20.4824219,1.0664063c19.28125,1.8833008,39.1943359,12.6479492,54.6318359,29.5341797
	c18.1621094,19.8671875,29.3398438,47.1713867,32.3242188,78.9575195l0.0986328,1.0537109v27.355957l-0.0966797,1.0395508
	c-3.9052734,42.1704102-24.703125,87.2426758-61.8193359,133.9614258
	c-35.5478516,44.7460938-87.1337891,92.3798828-153.3261719,141.5820313l-13.4765625,10.0166016l-13.4746094-10.0166016
	C161.5820313,377.887207,109.9980469,330.253418,74.4511719,285.5092773
	c-37.1142578-46.71875-57.9140625-91.7924805-61.8193359-133.9672852l-0.0966797-1.0390625v-27.3579102l0.0986328-1.0507813
	C15.609375,90.3071289,26.78125,63.0024414,44.9433594,43.1337891
	C60.3769531,26.2490234,80.2851563,15.4848633,99.5664063,13.6010742z"/>
</svg>
