<!DOCTYPE svg PUBLIC "-//W3C//DTD SVG 1.1//EN" "http://www.w3.org/Graphics/SVG/1.1/DTD/svg11.dtd" [
	<!ENTITY ns_flows "http://ns.adobe.com/Flows/1.0/">
]><svg xmlns="http://www.w3.org/2000/svg" width="595" height="595" viewBox="-56.390625 -71.425293 595 595" enable-background="new -56.390625 -71.425293 595 595"><path fill="#E36723" d="M36.61 33.513C15.702 55.81 3.054 86.613 0 122.645v28.35c3.52 42.36 23.052 87.293 58.06 133.562C98.204 337.61 159.79 394.04 241.247 452.43c81.457-58.392 143.045-114.823 183.188-167.873 35.014-46.272 54.546-91.202 58.066-133.56v-28.35c-3.06-36.032-15.713-66.837-36.62-89.133-17.292-18.44-39.798-30.244-61.75-32.39C376.48.38 369.18 0 362.428 0c-48.07 0-70.897 17.534-103.876 56.837L241.246 77.46 223.94 56.836C190.96 17.534 168.136 0 120.058 0c-6.75 0-14.053.38-21.702 1.125C76.402 3.27 53.898 15.075 36.61 33.513zM99.565 13.6c7.25-.706 14.143-1.065 20.49-1.065 43.35 0 63.298 15.437 94.284 52.363l26.912 32.063 26.9-32.064c30.98-36.925 50.924-52.36 94.276-52.36 6.35 0 13.243.358 20.482 1.065 19.28 1.884 39.194 12.65 54.632 29.535 18.162 19.867 29.34 47.172 32.324 78.958l.1 1.053v27.356l-.098 1.04c-3.905 42.17-24.703 87.243-61.82 133.96-35.547 44.748-87.133 92.38-153.325 141.583l-13.477 10.017-13.475-10.017C161.583 377.887 110 330.253 74.45 285.51c-37.113-46.72-57.913-91.793-61.818-133.968l-.097-1.04v-27.357l.1-1.05C15.608 90.306 26.78 63 44.942 43.134 60.377 26.248 80.285 15.484 99.566 13.6z"/></svg>