<?xml version="1.0" encoding="utf-8"?>
<!-- Generator: Adobe Illustrator 15.0.0, SVG Export Plug-In  -->
<!DOCTYPE svg PUBLIC "-//W3C//DTD SVG 1.1//EN" "http://www.w3.org/Graphics/SVG/1.1/DTD/svg11.dtd" [
	<!ENTITY ns_flows "http://ns.adobe.com/Flows/1.0/">
]>
<svg version="1.1"
	 xmlns="http://www.w3.org/2000/svg" xmlns:xlink="http://www.w3.org/1999/xlink" xmlns:a="http://ns.adobe.com/AdobeSVGViewerExtensions/3.0/"
	 x="0px" y="0px" width="595px" height="595px" viewBox="-14.0986328 -51.1494141 595 595"
	 enable-background="new -14.0986328 -51.1494141 595 595" xml:space="preserve">
<defs>
</defs>
<path fill="#E36723" d="M420.796875,219.159668c-9.5302734,0.0004883-18.3847656-2.2055664-23.1064453-5.7568359
	l-11.2167969-8.4379883l3.4042969,13.6176758c1.9462891,7.7788086,6.8349609,12.5830078,12.0488281,16.2167969
	c-0.3164063,0.9204102-0.5107422,1.8813477-0.5761719,2.8725586c-0.4023438,6.0283203,3.9082031,11.4482422,7.3212891,15.3203125
	c-2.7060547,8.5107422-5.3574219,17.0205078-8.0146484,25.6552734c1.515625,0.5664063,2.984375,1.2548828,4.3847656,2.0820313
	c1.5214844,0.8984375,3.0292969,1.8251953,4.5273438,2.7666016c3.1279297-10.1845703,6.2402344-20.1728516,9.4375-30.1806641
	l0.8535156-2.6767578l-1.8515625-2.1132813c-0.2792969-0.3173828-0.5849609-0.6591797-0.9091797-1.0224609
	c-1.9443359-2.1738281-5.9931641-6.6972656-5.8271484-9.1699219c0.0117188-0.1904297,0.0390625-0.5869141,0.7949219-1.234375
	l5.2402344-4.4838867l-5.9111328-3.5541992c-0.4199219-0.2524414-0.8291016-0.5019531-1.2275391-0.7495117
	c3.3613281,0.5209961,6.9316406,0.7924805,10.6289063,0.7924805c3.4599609,0,6.8037109-0.2416992,9.9628906-0.706543
	c-0.0664063,0.0327148-0.1328125,0.065918-0.1992188,0.0981445l-3.0917969,1.5175781l0.3349609,3.4277344
	c0.2373047,2.4414063,1.6386719,4.0351563,2.5654297,5.0898438c0.0332031,0.0371094,0.0693359,0.078125,0.1064453,0.1210938
	c-0.9472656,2.3818359-4.3037109,7.203125-5.9658203,8.1230469l-4.4287109,1.5283203l1.3876953,4.5800781
	c2.8222656,9.3232422,5.625,18.8857422,8.3339844,28.1328125c2.1484375,7.3300781,4.3417969,14.7939453,6.5722656,22.2529297
	c3.4492188,2.9169922,6.8369141,5.9306641,9.9365234,9.21875c1.5947266,1.6894531,3.1884766,3.390625,4.6318359,5.2148438
	c0.1308594,0.1640625,0.2558594,0.3320313,0.3847656,0.4960938c-4.1269531-13.1884766-8.1201172-26.7998047-11.9824219-39.9785156
	c-2.3896484-8.1552734-4.8505859-16.5537109-7.3398438-24.8339844c4.5039063-4.1660156,8.90625-11.6289063,8.6054688-15.7285156
	c-0.0888672-1.171875-0.4257813-2.1738281-0.8583984-3.0234375c6.3662109-4.3344727,10.5273438-10.109375,11.6621094-16.3710938
	l2.3076172-12.7270508l-10.2382813,7.9047852C438.9169922,216.9682617,430.2236328,219.159668,420.796875,219.159668z"/>
<path fill="#E36723" d="M573.9794922,301.1064453c-1.1074219-15.7910156-8.0507813-30.65625-13.9746094-41.84375
	c-17.0371094-32.1679688-46.9462891-56.4282227-86.7539063-70.4716797
	c9.2148438-12.480957,16.390625-26.6367188,21.84375-43.0561523c8.4277344-25.3779297,10.3642578-46.7763672,5.9179688-65.418457
	c-4.4765625-18.7641602-14.4160156-35.3222656-28.7402344-47.8847656
	c-10.2802734-9.0166016-26.7734375-21.003418-51.2148438-21.003418c-1.8720703,0-3.7910156,0.0708008-5.703125,0.2114258
	c-18.1904297,1.3388672-35.1132813,9.8852539-50.2998047,25.4003906c-0.2314453,0.2363281-0.4501953,0.4814453-0.6787109,0.7197266
	c2.3261719,2.7329102,4.0263672,5.8227539,5.1074219,9.1230469c0.8691406-0.9775391,1.7539063-1.9438477,2.6777344-2.8862305
	c13.4414063-13.734375,28.2207031-21.2841797,43.9228516-22.4394531c1.6699219-0.1230469,3.34375-0.1850586,4.9736328-0.1850586
	c16.0488281,0,30.2402344,5.8891602,44.6572266,18.5356445C478.4833984,51.1044922,487.3447266,65.875,491.3408203,82.6235352
	c4.0039063,16.7890625,2.1445313,36.4077148-5.6826172,59.9765625
	c-5.9013672,17.7675781-13.9130859,32.6586914-24.4902344,45.5229492l-4.6748047,5.6860352l7.0205078,2.2138672
	c40.6376953,12.8129883,70.9658203,36.2905273,87.703125,67.894043
	c5.4658203,10.3203125,11.8662109,23.9550781,12.8447266,37.8847656c0.4482422,6.4189453-1.0390625,11.5429688-4.8222656,16.6113281
	c-9.265625,12.4121094-28.9833984,22.8964844-58.6035156,31.1640625
	c-7.8945313,2.2041016-16.2441406,4.0439453-24.9160156,5.5234375c0.1591797,0.2392578,0.3056641,0.4873047,0.4677734,0.7246094
	c0.6416016,0.7900391,1.4179688,1.71875,1.9072266,2.2021484c0.3916016,0.3876953,0.6914063,0.6943359,0.9277344,0.9443359
	c1.8730469,1.4150391,3.5712891,2.9960938,5.0742188,4.7089844c6.6259766-1.296875,13.0507813-2.8037109,19.2138672-4.5253906
	c32.2333984-8.9980469,53.1347656-20.3779297,63.8964844-34.7929688
	C572.3759766,317.4384766,574.5917969,309.8320313,573.9794922,301.1064453z"/>
<path fill-rule="evenodd" clip-rule="evenodd" fill="none" stroke="#E36723" stroke-width="8.5039396" stroke-miterlimit="10" d="
	M348.5546875,254.125c55.7431641,17.5742188,102.9482422,50.4082031,129.4541016,100.4570313
	c8.640625,16.3154297,17.7089844,36.2890625,19.1601563,56.9599609c0.8427734,12.0390625-2.6494141,20.9316406-8.2841797,28.4814453
	c-17.4013672,23.3085938-53.9462891,37.7490234-87.5126953,47.1191406
	c-91.4179688,25.5224609-215.5996094,16.3232422-285.3222656-22.2646484
	c-13.9238281-7.7099609-28.3125-18.5654297-35.2109375-31.5869141c-3.3789063-6.3876953-4.90625-12.171875-4.1396484-22.2636719
	c1.5693359-20.7480469,10.578125-40.9228516,19.1601563-56.9609375
	c25.7880859-48.1923828,73.2148438-82.0009766,127.3808594-99.4238281
	c-0.1777344-3.0517578-2.9628906-5.1318359-4.6630859-7.2480469c-12.4462891-15.5439453-23.046875-35.1767578-30.5488281-56.4448242
	c-9.0078125-25.5449219-15.2792969-55.027832-10.3525391-85.4389648
	c4.4267578-27.3427734,16.3427734-49.644043,33.140625-66.7963867C226.9853516,22.1923828,249.125,6.6704102,278.1308594,4.5356445
	C311.6484375,2.0717773,335.4716797,16.0288086,354.25,32.4990234
	c18.7226563,16.4179688,32.6630859,38.8339844,38.8388672,64.7265625
	c7.4863281,31.3886719,0.2314453,63.9311523-8.2861328,89.5820313
	C376.015625,213.2592773,363.9052734,235.453125,348.5546875,254.125z M268.2919922,314.1914063
	c-9.6835938,8.2890625,2.5146484,20.4179688,7.7666016,26.4082031
	c-10.4873047,32.8417969-20.5322266,66.1181641-30.5488281,99.4238281
	c13.3857422,5.0849609,26.5341797,10.3984375,39.875,15.5332031c12.1435547-5.8037109,25.5839844-10.3115234,37.2792969-16.5712891
	c-10.2275391-32.5742188-19.5693359-66.0419922-29.5185547-98.9033203
	c5.1074219-1.7617188,13.7753906-14.9765625,13.46875-19.1611328c-0.2285156-3.0351563-3.8984375-4.7021484-4.1464844-7.2480469
	c9.1474609-4.4892578,17.8486328-12.1835938,19.6777344-22.2636719c-16.8554688,13.0136719-57.125,12.7265625-74.0449219,0
	C250.9658203,302.8652344,259.3476563,308.8134766,268.2919922,314.1914063z"/>
<path fill="#E36723" d="M128.6171875,312.3017578c0.9638672-0.4394531,1.9345703-0.859375,2.9052734-1.2832031
	c6.3476563-21.0615234,12.2880859-40.5683594,18.5673828-60.2373047l0.8544922-2.6767578l-1.8525391-2.1123047
	c-0.2802734-0.3193359-0.5869141-0.6630859-0.9140625-1.0273438c-1.9560547-2.1884766-6.0283203-6.7412109-5.8623047-9.2363281
	c0.0136719-0.1953125,0.0400391-0.6015625,0.8085938-1.2592773l5.2402344-4.4853516l-5.9121094-3.5537109
	c-0.4589844-0.2758789-0.9042969-0.5483398-1.3369141-0.8173828c3.4121094,0.5356445,7.0400391,0.8149414,10.7998047,0.8144531
	c3.5332031,0,6.9472656-0.2504883,10.1660156-0.7324219c-0.1132813,0.0566406-0.2275391,0.1137695-0.3417969,0.1694336
	l-3.0908203,1.5175781l0.3349609,3.4287109c0.2382813,2.4458008,1.6425781,4.0439453,2.5732422,5.1005859
	c0.0361328,0.0410156,0.0751953,0.0869141,0.1162109,0.1337891c-0.9472656,2.3974609-4.3359375,7.2685547-6.015625,8.1933594
	l-4.4277344,1.5283203l1.3857422,4.5800781c2.8359375,9.3642578,5.6494141,18.9677734,8.3720703,28.2548828
	c0.46875,1.6035156,0.9462891,3.2275391,1.4199219,4.8417969c2.5556641-2.265625,5.5332031-4.0341797,8.8623047-5.1113281
	c-0.2451172-0.8398438-0.4951172-1.6904297-0.7412109-2.5263672c-2.4003906-8.1933594-4.8730469-16.6328125-7.3740234-24.9521484
	c4.5253906-4.1806641,8.9541016-11.6826172,8.6523438-15.8027344c-0.0888672-1.1821289-0.4316406-2.1928711-0.8701172-3.0493164
	c6.4013672-4.3520508,10.5878906-10.1547852,11.7304688-16.4472656l2.3125-12.7314453l-10.2431641,7.9072266
	c-4.5957031,3.5483398-13.3417969,5.753418-22.8222656,5.753418c-9.5839844,0.0009766-18.4892578-2.21875-23.2392578-5.7910156
	l-11.2177734-8.4370117l3.4052734,13.6166992c1.9560547,7.8193359,6.875,12.6459961,12.1171875,16.2963867
	c-0.3222656,0.9282227-0.5185547,1.8974609-0.5849609,2.8989258c-0.4042969,6.0546875,3.9316406,11.5019531,7.3623047,15.390625
	c-6.9296875,21.7910156-13.4707031,43.4326172-20.6552734,67.3212891l-1.3339844,4.4355469l0.4951172,0.1884766
	C120.6357422,318.0273438,124.1025391,314.3632813,128.6171875,312.3017578z"/>
<path fill="#E36723" d="M98.4121094,352.9082031c-24.5166016-4.2109375-46.3310547-11.21875-63.2119141-20.5615234
	c-11.0283203-6.1064453-19.1210938-13.28125-22.7841797-20.1962891c-1.890625-3.5751953-2.8251953-6.7001953-2.3486328-12.9619141
	c1.1054688-14.6005859,7.8945313-28.7363281,12.9042969-38.1005859
	c16.5273438-30.8847656,47.3349609-54.8764648,86.7480469-67.5546875l3.6640625-1.1782227l-0.2226563-3.8427734
	c-0.1982422-3.4169922-2.2714844-5.6425781-3.6425781-7.1152344c-0.2558594-0.2749023-0.5097656-0.5405273-0.7207031-0.8032227
	c-8.40625-10.4970703-15.5585938-23.7241211-20.6816406-38.2529297c-7.5634766-21.4501953-9.875-40.3095703-7.0634766-57.6557617
	c2.8154297-17.3950195,10.203125-32.3017578,21.9580078-44.3061523
	c13.5136719-13.809082,28.3730469-21.4003906,44.1650391-22.5629883c1.6787109-0.1230469,3.3613281-0.1860352,5-0.1860352
	c16.1416016,0,30.4091797,5.921875,44.9052734,18.6376953c2.2460938,1.9677734,4.3613281,4.0522461,6.3613281,6.230957
	c2.0732422-2.65625,4.5644531-4.9428711,7.3769531-6.6669922c-2.2558594-2.4624023-4.6455078-4.8168945-7.1816406-7.0400391
	c-10.3291016-9.0605469-26.9003906-21.1054688-51.4619141-21.1054688c-1.8808594,0-3.8076172,0.0717773-5.7294922,0.2133789
	c-18.2792969,1.3447266-35.2841797,9.9331055-50.5410156,25.5229492c-13.21875,13.5-21.5185547,30.2124023-24.6679688,49.6733398
	c-3.0839844,19.0307617-0.6308594,39.4912109,7.5009766,62.5522461c5.3857422,15.2709961,12.90625,29.2563477,21.78125,40.5102539
	c-38.9394531,13.9438477-69.4443359,38.7119141-86.3154297,70.2392578
	c-5.4355469,10.15625-12.8046875,25.5654297-14.0527344,42.0380859c-0.5634766,7.421875,0.4101563,12.5693359,3.4755859,18.3652344
	C9.46875,327.828125,21.4013672,336.0722656,30.3837891,341.046875c17.3398438,9.5966797,39.5136719,16.8447266,64.34375,21.2919922
	C95.3505859,359.0039063,96.5712891,355.7939453,98.4121094,352.9082031z"/>
</svg>
