<?xml version="1.0" encoding="utf-8"?>
<!-- Generator: Adobe Illustrator 15.0.0, SVG Export Plug-In  -->
<!DOCTYPE svg PUBLIC "-//W3C//DTD SVG 1.1//EN" "http://www.w3.org/Graphics/SVG/1.1/DTD/svg11.dtd" [
	<!ENTITY ns_flows "http://ns.adobe.com/Flows/1.0/">
]>
<svg version="1.1"
	 xmlns="http://www.w3.org/2000/svg" xmlns:xlink="http://www.w3.org/1999/xlink" xmlns:a="http://ns.adobe.com/AdobeSVGViewerExtensions/3.0/"
	 x="0px" y="0px" width="595px" height="595px" viewBox="-40.5126953 -29.9428711 595 595"
	 enable-background="new -40.5126953 -29.9428711 595 595" xml:space="preserve">
<defs>
</defs>
<polygon fill="#E36723" points="55.2519531,458.8081055 8.5039063,458.8081055 8.5039063,8.5039063 332,8.5039063 332,31.0571289 
	340.5039063,31.0571289 340.5039063,0 0,0 0,467.3120117 55.2519531,467.3120117 "/>
<polygon fill="#E36723" points="55.2519531,50.0942383 8.5039063,50.0942383 8.5039063,8.5039063 332,8.5039063 332,31.0571289 
	340.5039063,31.0571289 340.5039063,0 0,0 0,58.5981445 55.2519531,58.5981445 "/>
<polygon fill="#E36723" points="55.2519531,332.1245117 34.5039063,332.1245117 34.5039063,163.2714844 55.2519531,163.2714844 
	55.2519531,154.7675781 26,154.7675781 26,340.628418 55.2519531,340.628418 "/>
<polygon fill="#E36723" points="55.2519531,433.4711914 34.5039063,433.4711914 34.5039063,374.3989258 55.2519531,374.3989258 
	55.2519531,365.8950195 26,365.8950195 26,441.9750977 55.2519531,441.9750977 "/>
<polygon fill="#E36723" points="107.2519531,485.519043 60.5039063,485.519043 60.5039063,35.2148438 384,35.2148438 
	384,56.0571289 392.5039063,56.0571289 392.5039063,26.7109375 52,26.7109375 52,494.0229492 107.2519531,494.0229492 "/>
<polygon fill="#E36723" points="107.2519531,76.8051758 60.5039063,76.8051758 60.5039063,35.2148438 384,35.2148438 
	384,56.0571289 392.5039063,56.0571289 392.5039063,26.7109375 52,26.7109375 52,85.309082 107.2519531,85.309082 "/>
<polygon fill="#E36723" points="107.2519531,358.8354492 86.5039063,358.8354492 86.5039063,189.9824219 107.2519531,189.9824219 
	107.2519531,181.4785156 78,181.4785156 78,367.3393555 107.2519531,367.3393555 "/>
<polygon fill="#E36723" points="107.2519531,460.1821289 86.5039063,460.1821289 86.5039063,401.1098633 107.2519531,401.1098633 
	107.2519531,392.605957 78,392.605957 78,468.6860352 107.2519531,468.6860352 "/>
<path fill="#E36723" d="M435.5136719,409.6821289c-0.2558594,0.0703125-0.5107422,0.1279297-0.765625,0.1894531v102.3583984
	H111.2519531V61.9257813h323.4960938v262.597168c0.6464844-0.609375,1.2890625-1.2089844,1.9277344-1.7900391
	c2.0078125-1.828125,4.2304688-3.3105469,6.5761719-4.4394531V53.421875H102.7480469v467.3120117h340.5039063V405.8989258
	C440.9345703,407.6000977,438.3251953,408.9086914,435.5136719,409.6821289z"/>
<path fill="#E36723" d="M443.2519531,112.0200195H102.7480469V53.421875h340.5039063V112.0200195z M111.2519531,103.5161133
	h323.4960938v-41.590332H111.2519531V103.5161133z"/>
<path fill="#E36723" d="M371.2519531,166.0200195H198.7480469v-36.5039063h172.5039063V166.0200195z M207.2519531,157.5161133
	h155.4960938v-19.4960938H207.2519531V157.5161133z"/>
<path fill="#E36723" d="M195.2519531,394.050293h-66.5039063V208.1894531h66.5039063V394.050293z M137.2519531,385.5463867
	h49.4960938V216.6933594h-49.4960938V385.5463867z"/>
<path fill="#E36723" d="M195.2519531,495.3969727h-66.5039063v-76.0800781h66.5039063V495.3969727z M137.2519531,486.8930664
	h49.4960938v-59.0722656h-49.4960938V486.8930664z"/>
<path fill="#E36723" d="M295.1611328,390.5375977c-1.0146484-1.5058594-1.9013672-3.1923828-2.6416016-4.9912109h-45.2675781
	V216.6933594h155.4960938v133.1879883c2.5830078-2.4443359,5.4267578-4.6835938,8.5039063-6.7177734V208.1894531H238.7480469
	V394.050293h59.1210938C296.921875,392.9526367,296.0117188,391.7983398,295.1611328,390.5375977z"/>
<path fill="#E36723" d="M373.1689453,478.2368164L269.1435547,374.1987305l58.1445313-58.1875l47.3447266,51.4570313
	l126.6435547-105.1674805l43.5556641,44.3188477L373.1689453,478.2368164z M281.1669922,374.1967773l92.0039063,92.0146484
	l159.6865234-159.6445313l-32.1650391-32.7275391L373.8476563,379.1733398l-46.8134766-50.8779297L281.1669922,374.1967773z"/>
</svg>
