<!DOCTYPE svg PUBLIC "-//W3C//DTD SVG 1.1//EN" "http://www.w3.org/Graphics/SVG/1.1/DTD/svg11.dtd" [
	<!ENTITY ns_flows "http://ns.adobe.com/Flows/1.0/">
]><svg xmlns="http://www.w3.org/2000/svg" width="595" height="595" viewBox="-14.0986328 -51.1494141 595 595" enable-background="new -14.0986328 -51.1494141 595 595"><path fill="#E36723" d="M420.797 219.16c-9.53 0-18.385-2.206-23.107-5.757l-11.216-8.438 3.404 13.618c1.946 7.778 6.835 12.583 12.05 16.216-.318.92-.512 1.88-.577 2.872-.402 6.028 3.91 11.448 7.322 15.32-2.706 8.51-5.358 17.02-8.015 25.655 1.516.567 2.985 1.255 4.385 2.082 1.52.898 3.03 1.825 4.527 2.766 3.127-10.184 6.24-20.173 9.437-30.18l.853-2.677-1.85-2.115c-.28-.317-.586-.66-.91-1.022-1.945-2.174-5.994-6.697-5.828-9.17.012-.19.04-.587.795-1.234l5.24-4.485-5.91-3.554c-.42-.252-.83-.5-1.228-.75 3.36.522 6.93.794 10.628.794 3.46 0 6.804-.242 9.963-.707l-.198.098-3.092 1.518.335 3.427c.237 2.442 1.638 4.036 2.565 5.09l.107.12c-.948 2.383-4.304 7.204-5.966 8.124l-4.428 1.53 1.388 4.58c2.822 9.322 5.625 18.885 8.334 28.132 2.148 7.33 4.342 14.794 6.572 22.253 3.45 2.916 6.837 5.93 9.936 9.217 1.595 1.69 3.19 3.39 4.632 5.215.13.164.256.332.385.496-4.128-13.188-8.12-26.8-11.983-39.978-2.39-8.156-4.85-16.554-7.34-24.834 4.504-4.166 8.906-11.63 8.605-15.73-.09-1.17-.425-2.173-.858-3.022 6.366-4.335 10.527-10.11 11.662-16.37l2.308-12.728-10.24 7.904c-4.567 3.528-13.26 5.72-22.687 5.72zM573.98 301.106c-1.108-15.79-8.05-30.656-13.975-41.843-17.037-32.168-46.946-56.43-86.754-70.472 9.216-12.48 16.392-26.636 21.845-43.055 8.427-25.378 10.364-46.777 5.918-65.42-4.477-18.763-14.416-35.32-28.74-47.883-10.28-9.017-26.774-21.004-51.215-21.004-1.872 0-3.79.07-5.704.212-18.19 1.34-35.113 9.885-50.3 25.4-.23.236-.45.48-.678.72 2.326 2.733 4.026 5.823 5.107 9.123.87-.978 1.754-1.944 2.678-2.886 13.443-13.735 28.222-21.285 43.924-22.44 1.67-.123 3.344-.185 4.974-.185 16.048 0 30.24 5.89 44.657 18.536 12.768 11.196 21.63 25.967 25.626 42.716 4.005 16.79 2.145 36.407-5.682 59.976-5.9 17.768-13.913 32.66-24.49 45.523l-4.675 5.686 7.02 2.213c40.638 12.813 70.966 36.29 87.704 67.894 5.466 10.32 11.866 23.955 12.845 37.885.448 6.42-1.04 11.543-4.823 16.61-9.266 12.413-28.984 22.898-58.604 31.165-7.895 2.204-16.244 4.044-24.916 5.524.16.24.305.488.468.725.64.79 1.417 1.72 1.907 2.202.39.388.69.695.927.945 1.874 1.415 3.572 2.996 5.075 4.71 6.626-1.298 13.05-2.805 19.214-4.527 32.234-8.998 53.135-20.378 63.897-34.793 5.17-6.924 7.385-14.53 6.772-23.256z"/><path clip-rule="evenodd" stroke="#E36723" stroke-width="8.504" stroke-miterlimit="10" d="M348.555 254.125c55.743 17.574 102.948 50.408 129.454 100.457 8.64 16.315 17.708 36.29 19.16 56.96.842 12.04-2.65 20.932-8.285 28.48-17.402 23.31-53.947 37.75-87.513 47.12-91.418 25.523-215.6 16.324-285.322-22.264-13.924-7.71-28.313-18.566-35.21-31.587-3.38-6.387-4.907-12.17-4.14-22.263 1.57-20.748 10.577-40.923 19.16-56.96 25.787-48.193 73.214-82.002 127.38-99.424-.177-3.052-2.963-5.132-4.663-7.248-12.446-15.544-23.047-35.177-30.55-56.445-9.006-25.545-15.278-55.028-10.35-85.44 4.426-27.342 16.342-49.643 33.14-66.796C226.984 22.192 249.124 6.67 278.13 4.536 311.65 2.072 335.473 16.03 354.25 32.5c18.723 16.417 32.663 38.833 38.84 64.726 7.485 31.388.23 63.93-8.287 89.582-8.787 26.45-20.898 48.645-36.248 67.317zm-80.263 60.066c-9.684 8.29 2.515 20.42 7.767 26.41-10.49 32.84-20.534 66.118-30.55 99.423 13.386 5.085 26.534 10.4 39.875 15.534 12.143-5.804 25.584-10.312 37.28-16.572-10.228-32.574-19.57-66.042-29.52-98.903 5.108-1.762 13.776-14.977 13.47-19.16-.23-3.036-3.9-4.703-4.147-7.25 9.147-4.488 17.848-12.183 19.678-22.263-16.856 13.013-57.125 12.726-74.045 0 2.866 11.455 11.248 17.403 20.192 22.78z" fill="none"/><path fill="#E36723" d="M128.617 312.302c.964-.44 1.935-.86 2.905-1.283 6.348-21.063 12.29-40.57 18.568-60.24l.854-2.676-1.852-2.112c-.28-.32-.587-.663-.914-1.027-1.956-2.19-6.03-6.74-5.863-9.236.014-.197.04-.603.81-1.26l5.24-4.486-5.913-3.554c-.46-.276-.904-.548-1.337-.817 3.412.535 7.04.815 10.8.814 3.533 0 6.947-.25 10.166-.732l-.34.17-3.092 1.517.335 3.43c.24 2.444 1.643 4.042 2.574 5.1l.116.133c-.947 2.397-4.336 7.268-6.016 8.193l-4.428 1.53 1.385 4.58c2.836 9.363 5.65 18.966 8.372 28.254l1.42 4.84c2.556-2.264 5.533-4.033 8.863-5.11l-.742-2.526c-2.4-8.194-4.873-16.633-7.374-24.952 4.526-4.18 8.954-11.683 8.653-15.803-.09-1.18-.432-2.192-.87-3.05 6.4-4.35 10.587-10.153 11.73-16.446l2.312-12.73-10.244 7.906c-4.595 3.548-13.34 5.753-22.822 5.753-9.584 0-18.49-2.218-23.24-5.79l-11.217-8.438 3.405 13.617c1.956 7.82 6.875 12.646 12.117 16.296-.323.93-.52 1.898-.585 2.9-.405 6.054 3.93 11.5 7.362 15.39-6.93 21.79-13.47 43.433-20.655 67.32l-1.334 4.437.495.188c2.373-4.376 5.84-8.04 10.354-10.1zM98.412 352.908c-24.516-4.21-46.33-11.22-63.212-20.56-11.028-6.108-19.12-13.283-22.784-20.198-1.89-3.575-2.825-6.7-2.35-12.962 1.107-14.6 7.896-28.736 12.906-38.1 16.527-30.885 47.335-54.877 86.748-67.555l3.664-1.178-.223-3.843c-.197-3.417-2.27-5.642-3.64-7.115-.257-.275-.51-.54-.722-.803-8.406-10.497-15.56-23.724-20.682-38.253-7.563-21.45-9.875-40.31-7.063-57.655C83.868 67.29 91.256 52.383 103.01 40.38c13.514-13.81 28.374-21.4 44.166-22.564 1.678-.123 3.36-.186 5-.186 16.14 0 30.41 5.922 44.905 18.638 2.247 1.967 4.362 4.052 6.362 6.23 2.074-2.656 4.565-4.942 7.377-6.666-2.257-2.463-4.646-4.817-7.182-7.04-10.33-9.06-26.9-21.106-51.462-21.106-1.88 0-3.808.072-5.73.213-18.28 1.344-35.284 9.933-50.54 25.522-13.22 13.5-21.52 30.213-24.67 49.674-3.083 19.03-.63 39.49 7.502 62.552 5.386 15.27 12.907 29.256 21.782 40.51-38.94 13.944-69.445 38.712-86.316 70.24C8.77 266.553 1.4 281.962.15 298.435c-.562 7.42.412 12.57 3.477 18.365C9.47 327.83 21.4 336.073 30.384 341.048c17.34 9.597 39.513 16.845 64.344 21.292.623-3.336 1.843-6.546 3.684-9.432z"/></svg>