<?xml version="1.0" encoding="utf-8"?>
<!-- Generator: Adobe Illustrator 15.0.0, SVG Export Plug-In  -->
<!DOCTYPE svg PUBLIC "-//W3C//DTD SVG 1.1//EN" "http://www.w3.org/Graphics/SVG/1.1/DTD/svg11.dtd" [
	<!ENTITY ns_flows "http://ns.adobe.com/Flows/1.0/">
]>
<svg version="1.1"
	 xmlns="http://www.w3.org/2000/svg" xmlns:xlink="http://www.w3.org/1999/xlink" xmlns:a="http://ns.adobe.com/AdobeSVGViewerExtensions/3.0/"
	 x="0px" y="0px" width="595px" height="595px" viewBox="-49.2578125 -52.7480469 595 595"
	 enable-background="new -49.2578125 -52.7480469 595 595" xml:space="preserve">
<defs>
</defs>
<rect x="4.2519531" y="4.2519531" fill="none" stroke="#000000" stroke-width="8.5039396" stroke-miterlimit="10" width="498" height="108"/>
<path fill="#E36723" d="M332.7060547,329.890625c0-39.1542969,35.9199219-67.890625,84.4130859-67.890625
	c48.8525391,0,84.4140625,28.7363281,84.4140625,67.890625c0,25.5029297-12.9316406,44.1816406-36.6396484,52.0839844
	c29.4550781,7.1845703,47.0566406,30.1738281,47.0566406,61.4248047c0,45.9785156-37.7167969,76.5107422-94.8310547,76.5107422
	c-57.1132813,0-94.4716797-30.5322266-94.4716797-76.5107422c0-31.2509766,17.6015625-54.2402344,47.0566406-61.4248047
	C345.9960938,374.0722656,332.7060547,355.3935547,332.7060547,329.890625z M373.6552734,440.1660156
	c0,24.4267578,17.6015625,40.9501953,43.4638672,40.9501953c26.2226563,0,43.8232422-16.1650391,43.8232422-40.5908203
	c0-24.0664063-17.9599609-40.2304688-44.9003906-40.2304688
	C391.2568359,400.2949219,373.6552734,416.8183594,373.6552734,440.1660156z M379.4023438,333.1230469
	c0,20.4746094,15.0869141,33.765625,38.0761719,33.765625c23.3486328,0,38.0761719-13.2910156,38.0761719-33.765625
	s-14.7275391-32.6875-38.4355469-32.6875C394.4892578,300.4355469,379.4023438,313.3671875,379.4023438,333.1230469z"/>
<path fill="#E36723" d="M284.5273438,462.7138672h-76.5136719v-42.1699219h77.2128906
	c0.5849609-2.8828125,1.2841797-5.71875,2.0927734-8.5039063h-79.3056641v-42.1689453h91.25v15.8701172
	c1.3740234-2.1230469,2.8203125-4.1992188,4.3613281-6.2109375c0.4628906-0.6035156,0.9326172-1.2021484,1.4082031-1.7939453
	c-2.8994141-5.1611328-5.2871094-10.6396484-7.1523438-16.3691406h-89.8671875v-42.1699219h85.5644531
	c0.2988281-2.875,0.7148438-5.7109375,1.2490234-8.5039063h-86.8134766v-42.1689453h91.25v26.2900391
	c2.265625-6.0839844,5.1191406-11.8935547,8.5039063-17.3886719v-8.9013672h6.1621094
	c2.2822266-2.9511719,4.734375-5.7871094,7.3417969-8.5039063h-13.5039063v-42.1699219h91.2509766v5.5083008
	c2.8007813-0.3251953,5.6347656-0.581543,8.5039063-0.7543945v-4.7539063H498v29.0410156
	c1.5449219,1.1201172,3.0595703,2.2734375,4.5380859,3.4638672c1.6279297,1.3115234,3.2060547,2.6611328,4.7392578,4.0439453V108
	h-0.7734375V0H0v108v50.6733398v8.5039063v42.1694336v8.5039063v42.1699219v8.5039063v42.1689453v8.5039063v42.1699219v8.5039063
	v42.1689453v8.5039063v50.6738281h99.7548828h8.5039063h91.2509766h8.5039063h78.25
	C285.5791016,468.4238281,285.0009766,465.5869141,284.5273438,462.7138672z M299.2636719,260.0205078h-91.25v-42.1699219h91.25
	V260.0205078z M299.2636719,209.3466797h-91.25v-42.1694336h91.25V209.3466797z M299.2636719,158.6733398h-91.25v-42.1694336h91.25
	V158.6733398z M399.0185547,209.3466797h-91.2509766v-42.1694336h91.2509766V209.3466797z M399.0185547,158.6733398h-91.2509766
	v-42.1694336h91.2509766V158.6733398z M498,209.3466797h-90.4775391v-42.1694336H498V209.3466797z M498,158.6733398h-90.4775391
	v-42.1694336H498V158.6733398z M99.7548828,462.7138672H8.5039063v-42.1699219h91.2509766V462.7138672z M99.7548828,412.0400391
	H8.5039063v-42.1689453h91.2509766V412.0400391z M99.7548828,361.3671875H8.5039063v-42.1699219h91.2509766V361.3671875z
	 M99.7548828,310.6933594H8.5039063v-42.1689453h91.2509766V310.6933594z M99.7548828,260.0205078H8.5039063v-42.1699219h91.2509766
	V260.0205078z M99.7548828,209.3466797H8.5039063v-42.1694336h91.2509766V209.3466797z M99.7548828,158.6733398H8.5039063
	v-42.1694336h91.2509766V158.6733398z M199.5097656,462.7138672h-91.2509766v-42.1699219h91.2509766V462.7138672z
	 M199.5097656,412.0400391h-91.2509766v-42.1689453h91.2509766V412.0400391z M199.5097656,361.3671875h-91.2509766v-42.1699219
	h91.2509766V361.3671875z M199.5097656,310.6933594h-91.2509766v-42.1689453h91.2509766V310.6933594z M199.5097656,260.0205078
	h-91.2509766v-42.1699219h91.2509766V260.0205078z M199.5097656,209.3466797h-91.2509766v-42.1694336h91.2509766V209.3466797z
	 M199.5097656,158.6733398h-91.2509766v-42.1694336h91.2509766V158.6733398z M199.5097656,108h-91.2509766h-8.5039063H8.5039063
	V8.5039063H498V108h-90.4775391h-8.5039063h-91.2509766h-8.5039063h-91.25H199.5097656z"/>
<rect x="29.2519531" y="30.2050781" fill="none" stroke="#E36723" stroke-width="8.5039396" stroke-miterlimit="10" width="67.7548828" height="56.0097656"/>
</svg>
