<!DOCTYPE svg PUBLIC "-//W3C//DTD SVG 1.1//EN" "http://www.w3.org/Graphics/SVG/1.1/DTD/svg11.dtd" [
	<!ENTITY ns_flows "http://ns.adobe.com/Flows/1.0/">
]><svg xmlns="http://www.w3.org/2000/svg" width="595" height="595" viewBox="-40.5126953 -29.9428711 595 595" enable-background="new -40.5126953 -29.9428711 595 595"><path fill="#E36723" d="M55.252 458.808h-46.748v-450.304h323.496v22.553h8.504v-31.057h-340.504v467.312h55.252zm0-408.714h-46.748v-41.59h323.496v22.553h8.504v-31.057h-340.504v58.598h55.252zm0 282.031h-20.748v-168.855h20.748v-8.502h-29.252v185.86h29.252zm0 101.345h-20.748v-59.07h20.748v-8.505h-29.252v76.08h29.252zm52 52.05h-46.748v-450.306h323.496v20.842h8.504v-29.346h-340.504v467.313h55.252zm0-408.715h-46.748v-41.59h323.496v20.842h8.504v-29.347h-340.504v58.6h55.252zm0 282.03h-20.748v-168.853h20.748v-8.503h-29.252v185.86h29.252zm0 101.347h-20.748v-59.072h20.748v-8.504h-29.252v76.08h29.252zm328.262-50.5l-.766.19v102.358h-323.496v-450.304h323.496v262.597c.647-.61 1.29-1.21 1.928-1.79 2.008-1.828 4.23-3.31 6.576-4.44v-264.87h-340.504v467.31h340.504v-114.833c-2.317 1.7-4.927 3.01-7.738 3.782zm7.738-297.662h-340.504v-58.598h340.504v58.598zm-332-8.504h323.496v-41.59h-323.496v41.59zm260 62.504h-172.504v-36.504h172.504v36.504zm-164-8.504h155.496v-19.496h-155.496v19.496zm-12 236.534h-66.504v-185.86h66.504v185.86zm-58-8.504h49.496v-168.853h-49.496v168.853zm58 109.851h-66.504v-76.08h66.504v76.08zm-58-8.504h49.496v-59.073h-49.496v59.073zm157.908-96.355c-1.014-1.506-1.9-3.193-2.64-4.992h-45.268v-168.853h155.496v133.187c2.583-2.443 5.427-4.682 8.504-6.716v-134.974h-172.504v185.86h59.12c-.946-1.097-1.856-2.252-2.707-3.512zm78.01 87.699l-104.027-104.037 58.144-58.19 47.345 51.458 126.644-105.168 43.556 44.32-171.662 171.617zm-92.003-104.04l92.004 92.014 159.687-159.643-32.165-32.728-126.844 105.333-46.814-50.878-45.867 45.902z"/></svg>